<svg width="108" height="104" viewBox="0 0 108 104" fill="none" xmlns="http://www.w3.org/2000/svg">
<path d="M53.8 0.950012C64.2 0.950012 73.45 3.20001 81.55 7.70001C89.75 12.2 96.1 18.45 100.6 26.45C105.2 34.55 107.5 43.7 107.5 53.9C107.5 66.4 104.2 77.1 97.6 86C91 94.9 82 100.85 70.6 103.85V75.65C75 73.55 78.35 70.55 80.65 66.65C82.95 62.85 84.1 58.5 84.1 53.6C84.1 45.7 81.35 39.3 75.85 34.4C70.35 29.5 63 27.05 53.8 27.05C44.6 27.05 37.25 29.5 31.75 34.4C26.25 39.3 23.5 45.7 23.5 53.6C23.5 58.5 24.65 62.85 26.95 66.65C29.25 70.55 32.6 73.55 37 75.65V103.85C25.6 100.85 16.6 94.9 9.99999 86C3.49999 77.1 0.249992 66.4 0.249992 53.9C0.249992 43.7 2.49999 34.55 6.99999 26.45C11.6 18.45 17.95 12.2 26.05 7.70001C34.15 3.20001 43.4 0.950012 53.8 0.950012Z" fill="#FF7A59"/>
</svg>
